<svg width="629" height="324" viewBox="0 0 629 324" fill="none" xmlns="http://www.w3.org/2000/svg">
<path fill-rule="evenodd" clip-rule="evenodd" d="M134.173 234.461V281.298H121.549V309.273H111.576V281.298H98.9512V234.461H134.173ZM127.609 241.026H105.516V274.733H127.609V241.026Z" fill="url(#paint0_linear_1146_5239)" style="mix-blend-mode:overlay"/>
<path fill-rule="evenodd" clip-rule="evenodd" d="M35.2222 228.326V299.705H22.5977V315.41H12.6244V299.705H0V228.326H35.2222ZM28.6575 234.891H6.56471V293.14H28.6575V234.891Z" fill="url(#paint1_linear_1146_5239)" style="mix-blend-mode:overlay"/>
<path fill-rule="evenodd" clip-rule="evenodd" d="M530.05 101.299V194.543H517.426V204.769H507.453V194.543H494.828V101.299H530.05ZM523.486 107.864H501.368V187.978H523.486V107.864Z" fill="url(#paint2_linear_1146_5239)" style="mix-blend-mode:overlay"/>
<path fill-rule="evenodd" clip-rule="evenodd" d="M332.124 94.127V211.938H319.5V220.119H309.501V211.938H296.877V94.127H332.124ZM325.56 100.692H303.467V205.373H325.56V100.692Z" fill="url(#paint3_linear_1146_5239)" style="mix-blend-mode:overlay"/>
<path fill-rule="evenodd" clip-rule="evenodd" d="M282.636 48.0234V195.856H270.012V212.242H260.038V195.856H247.414V48.0234H282.636ZM276.072 54.5881H253.953V189.291H276.072V54.5881Z" fill="url(#paint4_linear_1146_5239)" style="mix-blend-mode:overlay"/>
<path fill-rule="evenodd" clip-rule="evenodd" d="M183.66 274.885V301.245H171.035V323.085H161.062V301.245H148.438V274.885H161.062V253.045H171.035V274.885H183.66ZM177.095 281.45H155.002V294.68H177.095V281.45Z" fill="url(#paint5_linear_1146_5239)" style="mix-blend-mode:overlay"/>
<path fill-rule="evenodd" clip-rule="evenodd" d="M431.074 116.498V187.877H418.449V197.774H408.476V187.877H395.852V116.498H431.074ZM424.509 123.063H402.416V181.312H424.509V123.063Z" fill="url(#paint6_linear_1146_5239)" style="mix-blend-mode:overlay"/>
<path fill-rule="evenodd" clip-rule="evenodd" d="M480.562 79.9383V108.343H467.938V142.985H457.964V108.343H445.34V79.9383H457.964V45.2969H467.938V79.9383H480.562ZM473.997 86.503H451.905V101.779H473.997V86.503Z" fill="url(#paint7_linear_1146_5239)" style="mix-blend-mode:overlay"/>
<path fill-rule="evenodd" clip-rule="evenodd" d="M381.585 134.956V252.742H368.961V313.819H358.988V252.742H346.363V134.956H358.988V126.422H368.961V134.956H381.585ZM375.021 141.521H352.928V246.177H375.021V141.521Z" fill="url(#paint8_linear_1146_5239)" style="mix-blend-mode:overlay"/>
<path fill-rule="evenodd" clip-rule="evenodd" d="M629 26.7891V174.621H616.249L616.198 201.41L606.225 201.385L606.276 174.621H593.777V26.7891H606.528L606.579 0L616.552 0.0252504L616.501 26.7891H629ZM622.435 33.3538H600.342V168.056H622.435V33.3538Z" fill="url(#paint9_linear_1146_5239)" style="mix-blend-mode:overlay"/>
<path fill-rule="evenodd" clip-rule="evenodd" d="M579.536 93.1426V240.975H566.811L566.735 294.553L556.737 294.528L556.838 240.975H544.289V93.1426H579.536ZM572.972 99.7073H550.879V234.41H572.972V99.7073Z" fill="url(#paint10_linear_1146_5239)" style="mix-blend-mode:overlay"/>
<path fill-rule="evenodd" clip-rule="evenodd" d="M84.7103 157.376V247.413H71.9344L71.8839 263.27L61.9106 263.244L61.9611 247.413H49.4629V157.376H62.2388L62.2893 141.52L72.2626 141.545L72.2121 157.376H84.7103ZM78.1456 163.941H56.0528V240.849H78.1456V163.941Z" fill="url(#paint11_linear_1146_5239)" style="mix-blend-mode:overlay"/>
<path fill-rule="evenodd" clip-rule="evenodd" d="M233.148 160.356V250.394H220.397L220.347 266.25L210.373 266.225L210.424 250.394H197.926V160.356H210.676L210.727 144.5L220.7 144.525L220.65 160.356H233.148ZM226.583 166.921H204.49V243.829H226.583V166.921Z" fill="url(#paint12_linear_1146_5239)" style="mix-blend-mode:overlay"/>
<defs>
<linearGradient id="paint0_linear_1146_5239" x1="691.883" y1="234.464" x2="691.883" y2="309.273" gradientUnits="userSpaceOnUse">
<stop stop-color="white" stop-opacity="0.16"/>
<stop offset="1" stop-color="#070510" stop-opacity="0.16"/>
</linearGradient>
<linearGradient id="paint1_linear_1146_5239" x1="592.932" y1="228.329" x2="592.932" y2="315.41" gradientUnits="userSpaceOnUse">
<stop stop-color="white" stop-opacity="0.16"/>
<stop offset="1" stop-color="#070510" stop-opacity="0.16"/>
</linearGradient>
<linearGradient id="paint2_linear_1146_5239" x1="1087.76" y1="101.303" x2="1087.76" y2="204.769" gradientUnits="userSpaceOnUse">
<stop stop-color="white" stop-opacity="0.16"/>
<stop offset="1" stop-color="#070510" stop-opacity="0.16"/>
</linearGradient>
<linearGradient id="paint3_linear_1146_5239" x1="890.234" y1="94.1317" x2="890.234" y2="220.119" gradientUnits="userSpaceOnUse">
<stop stop-color="white" stop-opacity="0.16"/>
<stop offset="1" stop-color="#070510" stop-opacity="0.16"/>
</linearGradient>
<linearGradient id="paint4_linear_1146_5239" x1="840.346" y1="48.0296" x2="840.346" y2="212.242" gradientUnits="userSpaceOnUse">
<stop stop-color="white"/>
<stop offset="1" stop-color="#070510" stop-opacity="0.16"/>
</linearGradient>
<linearGradient id="paint5_linear_1146_5239" x1="741.369" y1="253.048" x2="741.369" y2="323.085" gradientUnits="userSpaceOnUse">
<stop stop-color="white" stop-opacity="0.16"/>
<stop offset="1" stop-color="#070510" stop-opacity="0.16"/>
</linearGradient>
<linearGradient id="paint6_linear_1146_5239" x1="988.783" y1="116.501" x2="988.783" y2="197.774" gradientUnits="userSpaceOnUse">
<stop stop-color="white"/>
<stop offset="1" stop-color="#070510" stop-opacity="0.16"/>
</linearGradient>
<linearGradient id="paint7_linear_1146_5239" x1="1038.27" y1="45.3005" x2="1038.27" y2="142.985" gradientUnits="userSpaceOnUse">
<stop stop-color="white" stop-opacity="0.16"/>
<stop offset="1" stop-color="#070510" stop-opacity="0.16"/>
</linearGradient>
<linearGradient id="paint8_linear_1146_5239" x1="939.295" y1="126.429" x2="939.295" y2="313.819" gradientUnits="userSpaceOnUse">
<stop stop-color="white" stop-opacity="0.16"/>
<stop offset="1" stop-color="#070510" stop-opacity="0.16"/>
</linearGradient>
<linearGradient id="paint9_linear_1146_5239" x1="1186.71" y1="0.00757466" x2="1186.71" y2="201.41" gradientUnits="userSpaceOnUse">
<stop stop-color="white" stop-opacity="0.16"/>
<stop offset="1" stop-color="#070510" stop-opacity="0.16"/>
</linearGradient>
<linearGradient id="paint10_linear_1146_5239" x1="1137.65" y1="93.1502" x2="1137.65" y2="294.553" gradientUnits="userSpaceOnUse">
<stop stop-color="white"/>
<stop offset="1" stop-color="#070510" stop-opacity="0.16"/>
</linearGradient>
<linearGradient id="paint11_linear_1146_5239" x1="642.82" y1="141.524" x2="642.82" y2="263.27" gradientUnits="userSpaceOnUse">
<stop stop-color="white" stop-opacity="0.16"/>
<stop offset="1" stop-color="#070510" stop-opacity="0.16"/>
</linearGradient>
<linearGradient id="paint12_linear_1146_5239" x1="790.858" y1="144.505" x2="790.858" y2="266.25" gradientUnits="userSpaceOnUse">
<stop stop-color="white" stop-opacity="0.16"/>
<stop offset="1" stop-color="#070510" stop-opacity="0.16"/>
</linearGradient>
</defs>
</svg>
